<svg xmlns="http://www.w3.org/2000/svg" width="16.748" height="13.608" viewBox="0 0 16.748 13.608"><defs><style>.a{fill:#cfff4d;fill-rule:evenodd;}</style></defs><path class="a" d="M34.271,21.3a5.586,5.586,0,0,1-2.155.765h0a3.454,3.454,0,0,0-5.865,3.158h0a9.569,9.569,0,0,1-7.123-3.585,3.457,3.457,0,0,0,1.048,4.565,2.221,2.221,0,0,1-1.509-.391,3.33,3.33,0,0,0,2.665,3.377,2.736,2.736,0,0,1-1.439.109,3.266,3.266,0,0,0,3.089,2.344A6.145,6.145,0,0,1,18,33.08a10.381,10.381,0,0,0,5.4,1.528,9.6,9.6,0,0,0,9.67-10.091c0-.006,0-.012,0-.019s0-.029,0-.044,0-.034,0-.05a5.96,5.96,0,0,0,1.675-1.769,6.055,6.055,0,0,1-1.916.544A3.671,3.671,0,0,0,34.271,21.3" transform="translate(-18 -21)"/></svg>