<svg xmlns="http://www.w3.org/2000/svg" width="17.444" height="16.54" viewBox="0 0 17.444 16.54"><defs><style>.a{fill:#cfff4d;fill-rule:evenodd;}</style></defs><path class="a" d="M19.15,21.924A1.97,1.97,0,1,0,17,19.963a2.061,2.061,0,0,0,2.15,1.961" transform="translate(-17 -18)"/><path class="a" d="M18,40.121h3.856V29H18Z" transform="translate(-17.507 -23.582)"/><path class="a" d="M32.85,33.429c0-1.275.6-2.523,2.046-2.523s1.8,1.247,1.8,2.492v6.074h3.839V33.15c0-4.392-2.6-5.15-4.194-5.15a3.9,3.9,0,0,0-3.489,1.848v-1.5H29V39.472h3.85Z" transform="translate(-23.089 -23.074)"/></svg>