<svg xmlns="http://www.w3.org/2000/svg" width="23.464" height="23.464" viewBox="0 0 23.464 23.464"><defs><style>.a{fill:#cfff4d;}</style></defs><path class="a" d="M16.474,0H6.99A7,7,0,0,0,0,6.99v9.484a7,7,0,0,0,6.99,6.99h9.484a7,7,0,0,0,6.99-6.99V6.99A7,7,0,0,0,16.474,0ZM21.1,16.474a4.63,4.63,0,0,1-4.63,4.63H6.99a4.63,4.63,0,0,1-4.63-4.63V6.99a4.63,4.63,0,0,1,4.63-4.63h9.484A4.63,4.63,0,0,1,21.1,6.99v9.484Z"/><path class="a" d="M139.069,133a6.069,6.069,0,1,0,6.069,6.069A6.076,6.076,0,0,0,139.069,133Zm0,9.777a3.708,3.708,0,1,1,3.708-3.708A3.708,3.708,0,0,1,139.069,142.777Z" transform="translate(-127.337 -127.337)"/><circle class="a" cx="1.454" cy="1.454" r="1.454" transform="translate(16.358 4.255)"/></svg>